<svg xmlns="http://www.w3.org/2000/svg" width="400" height="510" viewBox="0 0 400 510" data-palette="56e6cc-6abbe7-acf6cd-6070df6b75fb" role="img" aria-labelledby="hero-mobile-dark-title hero-mobile-dark-desc"><title id="hero-mobile-dark-title">SuJi</title><desc id="hero-mobile-dark-desc">Keep the fact and the source it came from.</desc><defs><linearGradient id="brand" gradientUnits="userSpaceOnUse" x2="400" y2="510"><stop stop-color="#56e6cc"/><stop offset=".6" stop-color="#6abbe7"/><stop offset="1" stop-color="#acf6cd"/></linearGradient><radialGradient id="halo"><stop stop-color="#56e6cc" stop-opacity=".22"/><stop offset="1" stop-color="#050c11" stop-opacity="0"/></radialGradient><filter id="glow"><feGaussianBlur stdDeviation="5"/></filter><pattern id="grid" width="40" height="40" patternUnits="userSpaceOnUse"><path d="M40 0H0V40" fill="none" stroke="#173c3a" stroke-opacity=".35" stroke-width=".6"/></pattern><marker id="arrow" viewBox="0 0 10 10" refX="8" refY="5" markerWidth="5" markerHeight="5" orient="auto"><path d="m1 1 7 4-7 4" fill="none" stroke="#56e6cc" stroke-width="1.5"/></marker></defs><style>text{font-family:Arial,"Noto Sans",sans-serif}.flow{stroke-dasharray:10 110;animation:flow 6s linear infinite}.pulse{animation:pulse 5s ease-in-out infinite}.turn{transform-box:fill-box;transform-origin:center;animation:turn 36s linear infinite}@keyframes flow{to{stroke-dashoffset:-360}}@keyframes pulse{0%,100%{opacity:.45}50%{opacity:1}}@keyframes turn{to{transform:rotate(360deg)}}@media(prefers-reduced-motion:reduce){*{animation:none!important;transform:none!important}.flow{display:none}}</style><rect width="400" height="510" rx="16" fill="#050c11"/><rect width="400" height="510" rx="16" fill="url(#grid)"/><ellipse cx="252.0" cy="219.29999999999998" rx="200.0" ry="357.0" fill="url(#halo)"/><circle cx="253.43" cy="224.50" r="0.80" fill="#6abbe7" opacity="0.32"/><circle cx="251.72" cy="222.76" r="1.02" fill="#56e6cc" opacity="0.50"/><circle cx="178.26" cy="491.53" r="1.66" fill="#56e6cc" opacity="0.46"/><circle cx="278.98" cy="500.36" r="0.70" fill="#6abbe7" opacity="0.32"/><circle cx="302.41" cy="472.00" r="1.13" fill="#56e6cc" opacity="0.47"/><circle cx="389.17" cy="452.71" r="1.02" fill="#56e6cc" opacity="0.79"/><circle cx="215.87" cy="268.69" r="1.04" fill="#6abbe7" opacity="0.23"/><circle cx="254.82" cy="405.78" r="1.52" fill="#56e6cc" opacity="0.48"/><circle cx="171.58" cy="388.87" r="0.88" fill="#56e6cc" opacity="0.24"/><circle cx="280.03" cy="223.77" r="1.37" fill="#6abbe7" opacity="0.43"/><circle cx="251.16" cy="277.21" r="1.69" fill="#56e6cc" opacity="0.32"/><circle cx="161.81" cy="373.64" r="1.62" fill="#56e6cc" opacity="0.40"/><circle cx="356.18" cy="372.23" r="0.91" fill="#6abbe7" opacity="0.60"/><circle cx="204.93" cy="480.75" r="0.82" fill="#56e6cc" opacity="0.45"/><circle cx="105.92" cy="431.99" r="1.40" fill="#56e6cc" opacity="0.73"/><circle cx="373.58" cy="255.71" r="1.16" fill="#6abbe7" opacity="0.74"/><circle cx="270.81" cy="322.98" r="1.13" fill="#56e6cc" opacity="0.79"/><circle cx="353.97" cy="466.88" r="1.41" fill="#56e6cc" opacity="0.78"/><circle cx="78.70" cy="309.35" r="1.54" fill="#6abbe7" opacity="0.34"/><circle cx="373.80" cy="450.76" r="1.68" fill="#56e6cc" opacity="0.77"/><circle cx="132.59" cy="272.01" r="1.23" fill="#56e6cc" opacity="0.33"/><circle cx="132.52" cy="409.19" r="1.53" fill="#6abbe7" opacity="0.74"/><circle cx="205.05" cy="419.72" r="0.65" fill="#56e6cc" opacity="0.55"/><circle cx="108.16" cy="445.56" r="1.12" fill="#56e6cc" opacity="0.34"/><circle cx="68.95" cy="320.07" r="1.18" fill="#6abbe7" opacity="0.64"/><circle cx="302.69" cy="235.44" r="1.02" fill="#56e6cc" opacity="0.24"/><circle cx="228.86" cy="492.98" r="1.67" fill="#56e6cc" opacity="0.71"/><circle cx="145.72" cy="247.74" r="1.53" fill="#6abbe7" opacity="0.48"/><circle cx="421.42" cy="400.60" r="1.49" fill="#56e6cc" opacity="0.74"/><circle cx="322.13" cy="240.26" r="0.63" fill="#56e6cc" opacity="0.52"/><circle cx="93.26" cy="414.03" r="1.55" fill="#6abbe7" opacity="0.71"/><circle cx="115.06" cy="389.59" r="0.92" fill="#56e6cc" opacity="0.23"/><circle cx="99.80" cy="291.29" r="0.91" fill="#56e6cc" opacity="0.80"/><circle cx="417.63" cy="414.29" r="1.03" fill="#6abbe7" opacity="0.61"/><circle cx="198.24" cy="362.85" r="1.30" fill="#56e6cc" opacity="0.70"/><circle cx="279.44" cy="493.61" r="0.98" fill="#56e6cc" opacity="0.28"/><circle cx="68.22" cy="371.94" r="0.85" fill="#6abbe7" opacity="0.42"/><circle cx="61.05" cy="374.81" r="1.50" fill="#56e6cc" opacity="0.37"/><circle cx="140.62" cy="249.73" r="1.07" fill="#56e6cc" opacity="0.72"/><circle cx="107.89" cy="292.28" r="0.74" fill="#6abbe7" opacity="0.28"/><circle cx="341.64" cy="325.41" r="1.67" fill="#56e6cc" opacity="0.60"/><circle cx="146.02" cy="291.48" r="0.61" fill="#56e6cc" opacity="0.34"/><circle cx="154.92" cy="475.37" r="1.04" fill="#6abbe7" opacity="0.30"/><circle cx="378.03" cy="465.42" r="1.41" fill="#56e6cc" opacity="0.36"/><circle cx="305.42" cy="301.28" r="1.16" fill="#56e6cc" opacity="0.28"/><circle cx="299.57" cy="276.31" r="1.16" fill="#6abbe7" opacity="0.74"/><circle cx="96.40" cy="388.92" r="0.99" fill="#56e6cc" opacity="0.35"/><circle cx="346.63" cy="441.11" r="0.93" fill="#56e6cc" opacity="0.63"/><circle cx="119.66" cy="452.78" r="1.39" fill="#6abbe7" opacity="0.29"/><circle cx="177.66" cy="235.14" r="1.11" fill="#56e6cc" opacity="0.75"/><circle cx="309.20" cy="236.23" r="1.39" fill="#56e6cc" opacity="0.49"/><circle cx="114.86" cy="366.99" r="1.19" fill="#6abbe7" opacity="0.31"/><circle cx="243.97" cy="232.59" r="1.15" fill="#56e6cc" opacity="0.38"/><circle cx="78.37" cy="320.98" r="0.93" fill="#56e6cc" opacity="0.47"/><circle cx="295.13" cy="448.73" r="1.25" fill="#6abbe7" opacity="0.73"/><circle cx="69.00" cy="353.91" r="0.98" fill="#56e6cc" opacity="0.33"/><circle cx="172.00" cy="412.92" r="1.54" fill="#56e6cc" opacity="0.22"/><circle cx="328.95" cy="463.28" r="1.69" fill="#6abbe7" opacity="0.73"/><circle cx="366.28" cy="338.07" r="0.63" fill="#56e6cc" opacity="0.80"/><circle cx="278.92" cy="400.70" r="1.34" fill="#56e6cc" opacity="0.78"/><circle cx="243.79" cy="477.51" r="0.80" fill="#6abbe7" opacity="0.60"/><circle cx="128.61" cy="387.50" r="1.65" fill="#56e6cc" opacity="0.24"/><circle cx="379.16" cy="440.16" r="1.35" fill="#56e6cc" opacity="0.73"/><circle cx="100.24" cy="441.28" r="0.75" fill="#6abbe7" opacity="0.46"/><circle cx="419.81" cy="323.25" r="0.62" fill="#56e6cc" opacity="0.30"/><circle cx="262.91" cy="342.29" r="1.36" fill="#56e6cc" opacity="0.26"/><circle cx="191.88" cy="487.49" r="1.54" fill="#6abbe7" opacity="0.36"/><circle cx="316.08" cy="492.20" r="0.72" fill="#56e6cc" opacity="0.73"/><circle cx="192.79" cy="480.54" r="1.08" fill="#56e6cc" opacity="0.23"/><circle cx="404.26" cy="281.98" r="1.52" fill="#6abbe7" opacity="0.60"/><circle cx="256.28" cy="360.40" r="1.12" fill="#56e6cc" opacity="0.64"/><circle cx="382.04" cy="462.66" r="1.20" fill="#56e6cc" opacity="0.54"/><circle cx="119.70" cy="371.49" r="0.95" fill="#6abbe7" opacity="0.23"/><circle cx="284.62" cy="447.01" r="1.43" fill="#56e6cc" opacity="0.53"/><circle cx="405.57" cy="397.46" r="1.33" fill="#56e6cc" opacity="0.70"/><circle cx="332.77" cy="354.08" r="0.90" fill="#6abbe7" opacity="0.74"/><circle cx="262.31" cy="228.03" r="1.61" fill="#56e6cc" opacity="0.23"/><circle cx="102.43" cy="300.60" r="1.42" fill="#56e6cc" opacity="0.38"/><circle cx="334.91" cy="236.89" r="0.96" fill="#6abbe7" opacity="0.32"/><circle cx="224.14" cy="243.76" r="1.37" fill="#56e6cc" opacity="0.34"/><circle cx="275.89" cy="375.22" r="1.08" fill="#56e6cc" opacity="0.79"/><circle cx="389.37" cy="443.60" r="0.79" fill="#6abbe7" opacity="0.30"/><circle cx="343.31" cy="359.75" r="1.19" fill="#56e6cc" opacity="0.46"/><circle cx="166.74" cy="255.55" r="0.69" fill="#56e6cc" opacity="0.24"/><circle cx="304.78" cy="297.11" r="0.85" fill="#6abbe7" opacity="0.40"/><circle cx="311.50" cy="353.29" r="1.49" fill="#56e6cc" opacity="0.73"/><circle cx="395.54" cy="311.12" r="0.93" fill="#56e6cc" opacity="0.69"/><circle cx="268.51" cy="500.49" r="0.83" fill="#6abbe7" opacity="0.72"/><circle cx="237.41" cy="233.88" r="1.22" fill="#56e6cc" opacity="0.68"/><circle cx="252.29" cy="498.62" r="1.24" fill="#56e6cc" opacity="0.62"/><circle cx="286.63" cy="446.12" r="1.34" fill="#6abbe7" opacity="0.44"/><circle cx="123.64" cy="440.17" r="1.45" fill="#56e6cc" opacity="0.67"/><circle cx="434.56" cy="395.06" r="0.81" fill="#56e6cc" opacity="0.32"/><circle cx="104.37" cy="449.05" r="0.74" fill="#6abbe7" opacity="0.62"/><circle cx="185.23" cy="231.13" r="0.91" fill="#56e6cc" opacity="0.21"/><circle cx="110.82" cy="338.98" r="0.70" fill="#56e6cc" opacity="0.21"/><circle cx="97.37" cy="312.60" r="0.98" fill="#6abbe7" opacity="0.46"/><circle cx="361.08" cy="253.98" r="1.06" fill="#56e6cc" opacity="0.55"/><circle cx="266.71" cy="346.99" r="0.95" fill="#56e6cc" opacity="0.35"/><circle cx="336.28" cy="237.59" r="1.27" fill="#6abbe7" opacity="0.70"/><circle cx="383.97" cy="295.70" r="1.23" fill="#56e6cc" opacity="0.41"/><circle cx="99.70" cy="333.73" r="0.78" fill="#56e6cc" opacity="0.32"/><circle cx="224.79" cy="465.52" r="0.73" fill="#6abbe7" opacity="0.21"/><circle cx="111.73" cy="457.50" r="0.62" fill="#56e6cc" opacity="0.42"/><circle cx="437.21" cy="341.99" r="0.63" fill="#56e6cc" opacity="0.34"/><circle cx="65.60" cy="392.16" r="1.25" fill="#6abbe7" opacity="0.48"/><circle cx="403.04" cy="441.26" r="1.57" fill="#56e6cc" opacity="0.21"/><circle cx="222.81" cy="500.55" r="0.98" fill="#56e6cc" opacity="0.67"/><circle cx="101.58" cy="393.96" r="0.91" fill="#6abbe7" opacity="0.21"/><circle cx="192.39" cy="493.47" r="1.45" fill="#56e6cc" opacity="0.38"/><circle cx="165.82" cy="343.82" r="1.48" fill="#56e6cc" opacity="0.74"/><circle cx="302.82" cy="334.29" r="1.50" fill="#6abbe7" opacity="0.57"/><circle cx="419.49" cy="412.56" r="1.52" fill="#56e6cc" opacity="0.33"/><circle cx="384.28" cy="397.26" r="0.80" fill="#56e6cc" opacity="0.24"/><circle cx="416.55" cy="429.35" r="1.58" fill="#6abbe7" opacity="0.36"/><circle cx="429.18" cy="400.85" r="1.07" fill="#56e6cc" opacity="0.31"/><circle cx="150.38" cy="249.25" r="1.48" fill="#56e6cc" opacity="0.23"/><circle cx="197.88" cy="253.33" r="1.43" fill="#6abbe7" opacity="0.77"/><circle cx="65.71" cy="340.22" r="0.83" fill="#56e6cc" opacity="0.25"/><circle cx="69.27" cy="400.92" r="1.51" fill="#56e6cc" opacity="0.29"/><circle cx="354.22" cy="245.06" r="0.76" fill="#6abbe7" opacity="0.67"/><circle cx="252.40" cy="416.77" r="0.66" fill="#56e6cc" opacity="0.31"/><circle cx="307.24" cy="254.59" r="0.78" fill="#56e6cc" opacity="0.30"/><circle cx="133.10" cy="391.49" r="0.97" fill="#6abbe7" opacity="0.76"/><circle cx="187.96" cy="399.85" r="1.16" fill="#56e6cc" opacity="0.21"/><circle cx="198.68" cy="484.22" r="0.78" fill="#56e6cc" opacity="0.36"/><circle cx="192.80" cy="237.05" r="1.07" fill="#6abbe7" opacity="0.79"/><circle cx="80.24" cy="304.10" r="1.14" fill="#56e6cc" opacity="0.61"/><circle cx="397.89" cy="309.67" r="0.87" fill="#56e6cc" opacity="0.66"/><circle cx="309.66" cy="251.04" r="1.38" fill="#6abbe7" opacity="0.61"/><circle cx="414.87" cy="423.51" r="0.83" fill="#56e6cc" opacity="0.44"/><circle cx="110.56" cy="412.27" r="1.00" fill="#56e6cc" opacity="0.31"/><circle cx="271.46" cy="247.23" r="0.83" fill="#6abbe7" opacity="0.32"/><circle cx="390.18" cy="288.97" r="0.97" fill="#56e6cc" opacity="0.22"/><circle cx="216.25" cy="499.50" r="1.11" fill="#56e6cc" opacity="0.36"/><circle cx="83.26" cy="320.73" r="1.44" fill="#6abbe7" opacity="0.52"/><circle cx="142.51" cy="246.56" r="1.39" fill="#56e6cc" opacity="0.58"/><circle cx="75.67" cy="306.40" r="1.02" fill="#56e6cc" opacity="0.30"/><circle cx="145.66" cy="447.67" r="1.39" fill="#6abbe7" opacity="0.36"/><circle cx="150.29" cy="371.64" r="0.79" fill="#56e6cc" opacity="0.54"/><circle cx="219.86" cy="226.81" r="0.66" fill="#56e6cc" opacity="0.50"/><circle cx="117.80" cy="449.07" r="1.39" fill="#6abbe7" opacity="0.70"/><circle cx="67.72" cy="397.98" r="1.58" fill="#56e6cc" opacity="0.29"/><circle cx="141.15" cy="473.49" r="1.53" fill="#56e6cc" opacity="0.69"/><circle cx="70.04" cy="319.74" r="1.07" fill="#6abbe7" opacity="0.26"/><circle cx="274.36" cy="494.18" r="1.70" fill="#56e6cc" opacity="0.57"/><circle cx="64.79" cy="392.40" r="1.45" fill="#56e6cc" opacity="0.68"/><circle cx="401.50" cy="437.39" r="1.42" fill="#6abbe7" opacity="0.38"/><circle cx="304.28" cy="396.37" r="1.30" fill="#56e6cc" opacity="0.66"/><circle cx="128.99" cy="254.12" r="0.90" fill="#56e6cc" opacity="0.68"/><circle cx="95.03" cy="395.49" r="0.78" fill="#6abbe7" opacity="0.74"/><circle cx="102.94" cy="280.31" r="0.93" fill="#56e6cc" opacity="0.48"/><circle cx="142.25" cy="476.45" r="1.61" fill="#56e6cc" opacity="0.42"/><circle cx="362.32" cy="249.15" r="1.44" fill="#6abbe7" opacity="0.28"/><circle cx="171.46" cy="305.20" r="1.13" fill="#56e6cc" opacity="0.28"/><circle cx="241.01" cy="501.25" r="1.64" fill="#56e6cc" opacity="0.47"/><circle cx="107.24" cy="279.06" r="1.63" fill="#6abbe7" opacity="0.22"/><circle cx="68.51" cy="348.18" r="1.47" fill="#56e6cc" opacity="0.50"/><circle cx="362.45" cy="348.96" r="1.06" fill="#56e6cc" opacity="0.46"/><circle cx="172.12" cy="282.18" r="1.50" fill="#6abbe7" opacity="0.67"/><circle cx="184.70" cy="480.83" r="1.38" fill="#56e6cc" opacity="0.67"/><circle cx="433.41" cy="329.32" r="0.91" fill="#56e6cc" opacity="0.70"/><circle cx="429.05" cy="362.05" r="1.14" fill="#6abbe7" opacity="0.72"/><circle cx="363.29" cy="280.36" r="1.24" fill="#56e6cc" opacity="0.51"/><circle cx="184.07" cy="461.33" r="0.74" fill="#56e6cc" opacity="0.73"/><circle cx="249.93" cy="501.95" r="1.32" fill="#6abbe7" opacity="0.30"/><circle cx="301.14" cy="477.44" r="0.80" fill="#56e6cc" opacity="0.47"/><circle cx="220.11" cy="298.52" r="0.93" fill="#56e6cc" opacity="0.79"/><circle cx="370.89" cy="429.70" r="1.37" fill="#6abbe7" opacity="0.53"/><circle cx="325.29" cy="325.20" r="1.31" fill="#56e6cc" opacity="0.69"/><circle cx="221.49" cy="233.78" r="0.61" fill="#56e6cc" opacity="0.69"/><circle cx="357.22" cy="270.45" r="1.63" fill="#6abbe7" opacity="0.79"/><circle cx="65.01" cy="393.80" r="0.99" fill="#56e6cc" opacity="0.42"/><circle cx="61.70" cy="368.53" r="1.02" fill="#56e6cc" opacity="0.35"/><circle cx="149.13" cy="428.52" r="0.95" fill="#6abbe7" opacity="0.53"/><circle cx="398.98" cy="422.01" r="1.48" fill="#56e6cc" opacity="0.60"/><circle cx="405.69" cy="439.73" r="1.49" fill="#56e6cc" opacity="0.22"/><circle cx="87.27" cy="332.92" r="1.28" fill="#6abbe7" opacity="0.35"/><circle cx="293.55" cy="447.38" r="0.92" fill="#56e6cc" opacity="0.60"/><circle cx="411.65" cy="323.39" r="0.71" fill="#56e6cc" opacity="0.77"/><circle cx="295.29" cy="486.78" r="0.64" fill="#6abbe7" opacity="0.25"/><circle cx="428.94" cy="314.97" r="1.65" fill="#56e6cc" opacity="0.41"/><circle cx="315.24" cy="298.70" r="0.64" fill="#56e6cc" opacity="0.62"/><circle cx="73.93" cy="332.19" r="1.35" fill="#6abbe7" opacity="0.31"/><circle cx="300.10" cy="351.53" r="1.08" fill="#56e6cc" opacity="0.28"/><circle cx="387.11" cy="335.23" r="1.46" fill="#56e6cc" opacity="0.50"/><circle cx="314.05" cy="474.60" r="1.01" fill="#6abbe7" opacity="0.21"/><circle cx="107.85" cy="342.55" r="1.65" fill="#56e6cc" opacity="0.67"/><circle cx="258.10" cy="352.50" r="0.65" fill="#56e6cc" opacity="0.38"/><circle cx="209.14" cy="489.21" r="1.54" fill="#6abbe7" opacity="0.47"/><circle cx="207.70" cy="229.86" r="1.22" fill="#56e6cc" opacity="0.36"/><circle cx="204.97" cy="350.09" r="1.24" fill="#56e6cc" opacity="0.79"/><circle cx="343.02" cy="305.84" r="0.96" fill="#6abbe7" opacity="0.48"/><circle cx="210.00" cy="496.32" r="0.87" fill="#56e6cc" opacity="0.79"/><circle cx="323.09" cy="467.97" r="1.58" fill="#56e6cc" opacity="0.64"/><circle cx="94.27" cy="359.08" r="1.08" fill="#6abbe7" opacity="0.42"/><circle cx="338.35" cy="238.06" r="0.77" fill="#56e6cc" opacity="0.24"/><circle cx="299.89" cy="239.17" r="0.85" fill="#56e6cc" opacity="0.79"/><circle cx="372.86" cy="278.30" r="1.17" fill="#6abbe7" opacity="0.26"/><circle cx="76.26" cy="306.68" r="0.68" fill="#56e6cc" opacity="0.34"/><circle cx="266.31" cy="224.47" r="0.71" fill="#56e6cc" opacity="0.50"/><circle cx="148.86" cy="338.58" r="0.73" fill="#6abbe7" opacity="0.43"/><circle cx="363.55" cy="467.46" r="0.81" fill="#56e6cc" opacity="0.24"/><circle cx="184.99" cy="235.88" r="0.97" fill="#56e6cc" opacity="0.28"/><circle cx="275.25" cy="254.82" r="1.36" fill="#6abbe7" opacity="0.54"/><circle cx="350.89" cy="285.09" r="1.59" fill="#56e6cc" opacity="0.34"/><circle cx="185.26" cy="415.27" r="1.46" fill="#56e6cc" opacity="0.24"/><circle cx="373.59" cy="324.43" r="1.47" fill="#6abbe7" opacity="0.47"/><circle cx="409.65" cy="382.71" r="0.92" fill="#56e6cc" opacity="0.61"/><circle cx="337.50" cy="482.90" r="0.89" fill="#56e6cc" opacity="0.79"/><circle cx="317.23" cy="358.41" r="1.07" fill="#6abbe7" opacity="0.52"/><circle cx="400.90" cy="277.05" r="1.12" fill="#56e6cc" opacity="0.44"/><circle cx="316.45" cy="479.38" r="1.58" fill="#56e6cc" opacity="0.40"/><circle cx="129.63" cy="469.87" r="1.65" fill="#6abbe7" opacity="0.66"/><circle cx="213.34" cy="498.46" r="1.16" fill="#56e6cc" opacity="0.50"/><circle cx="230.26" cy="432.52" r="1.48" fill="#56e6cc" opacity="0.48"/><circle cx="131.92" cy="393.33" r="0.99" fill="#6abbe7" opacity="0.73"/><circle cx="415.43" cy="403.13" r="1.46" fill="#56e6cc" opacity="0.47"/><circle cx="248.01" cy="396.37" r="0.92" fill="#56e6cc" opacity="0.36"/><circle cx="204.86" cy="488.48" r="1.15" fill="#6abbe7" opacity="0.74"/><circle cx="286.01" cy="224.75" r="0.68" fill="#56e6cc" opacity="0.22"/><circle cx="78.08" cy="364.22" r="1.47" fill="#56e6cc" opacity="0.41"/><circle cx="293.48" cy="480.25" r="1.49" fill="#6abbe7" opacity="0.41"/><circle cx="338.66" cy="422.66" r="1.34" fill="#56e6cc" opacity="0.55"/><circle cx="147.80" cy="468.02" r="1.25" fill="#56e6cc" opacity="0.32"/><circle cx="299.94" cy="326.59" r="0.87" fill="#6abbe7" opacity="0.35"/><circle cx="176.53" cy="299.02" r="1.14" fill="#56e6cc" opacity="0.43"/><circle cx="168.82" cy="481.04" r="0.82" fill="#56e6cc" opacity="0.29"/><circle cx="303.81" cy="496.11" r="1.45" fill="#6abbe7" opacity="0.37"/><circle cx="340.25" cy="447.47" r="0.86" fill="#56e6cc" opacity="0.71"/><circle cx="239.89" cy="324.14" r="0.63" fill="#56e6cc" opacity="0.43"/><circle cx="188.88" cy="260.28" r="1.25" fill="#6abbe7" opacity="0.50"/><circle cx="103.39" cy="349.37" r="1.05" fill="#56e6cc" opacity="0.41"/><circle cx="275.97" cy="461.83" r="0.76" fill="#56e6cc" opacity="0.29"/><circle cx="432.04" cy="387.06" r="0.78" fill="#6abbe7" opacity="0.52"/><circle cx="360.28" cy="475.16" r="0.64" fill="#56e6cc" opacity="0.52"/><circle cx="95.53" cy="320.04" r="1.04" fill="#56e6cc" opacity="0.25"/><circle cx="189.32" cy="432.57" r="1.10" fill="#6abbe7" opacity="0.30"/><circle cx="385.44" cy="316.63" r="0.72" fill="#56e6cc" opacity="0.31"/><circle cx="378.45" cy="343.78" r="1.69" fill="#56e6cc" opacity="0.24"/><circle cx="306.16" cy="495.65" r="1.52" fill="#6abbe7" opacity="0.45"/><circle cx="352.11" cy="466.04" r="1.42" fill="#56e6cc" opacity="0.76"/><circle cx="419.58" cy="408.79" r="0.61" fill="#56e6cc" opacity="0.70"/><circle cx="215.68" cy="363.07" r="0.64" fill="#6abbe7" opacity="0.43"/><circle cx="212.86" cy="393.57" r="1.52" fill="#56e6cc" opacity="0.75"/><circle cx="429.40" cy="406.03" r="0.60" fill="#56e6cc" opacity="0.42"/><circle cx="108.47" cy="268.61" r="0.95" fill="#6abbe7" opacity="0.74"/><circle cx="263.25" cy="370.82" r="0.86" fill="#56e6cc" opacity="0.46"/><circle cx="374.90" cy="467.49" r="1.08" fill="#56e6cc" opacity="0.49"/><circle cx="274.47" cy="224.78" r="0.93" fill="#6abbe7" opacity="0.67"/><circle cx="342.74" cy="277.19" r="0.91" fill="#56e6cc" opacity="0.71"/><circle cx="93.06" cy="430.95" r="0.76" fill="#56e6cc" opacity="0.35"/><circle cx="329.50" cy="267.86" r="1.12" fill="#6abbe7" opacity="0.73"/><circle cx="344.98" cy="472.44" r="1.06" fill="#56e6cc" opacity="0.39"/><circle cx="304.08" cy="311.44" r="1.24" fill="#56e6cc" opacity="0.66"/><circle cx="337.38" cy="268.49" r="1.35" fill="#6abbe7" opacity="0.59"/><circle cx="418.36" cy="317.46" r="1.25" fill="#56e6cc" opacity="0.72"/><circle cx="153.05" cy="248.57" r="1.03" fill="#56e6cc" opacity="0.63"/><circle cx="417.49" cy="336.32" r="1.61" fill="#6abbe7" opacity="0.22"/><circle cx="176.21" cy="352.25" r="1.38" fill="#56e6cc" opacity="0.23"/><circle cx="356.83" cy="455.02" r="0.94" fill="#56e6cc" opacity="0.62"/><circle cx="378.25" cy="315.88" r="1.68" fill="#6abbe7" opacity="0.64"/><circle cx="378.30" cy="427.22" r="1.25" fill="#56e6cc" opacity="0.80"/><circle cx="136.13" cy="251.42" r="1.25" fill="#56e6cc" opacity="0.68"/><circle cx="298.63" cy="480.60" r="0.75" fill="#6abbe7" opacity="0.30"/><circle cx="437.94" cy="378.11" r="0.85" fill="#56e6cc" opacity="0.34"/><circle cx="323.08" cy="388.44" r="0.88" fill="#56e6cc" opacity="0.46"/><circle cx="277.16" cy="227.60" r="1.31" fill="#6abbe7" opacity="0.31"/><circle cx="420.58" cy="324.21" r="0.89" fill="#56e6cc" opacity="0.76"/><circle cx="210.51" cy="479.19" r="0.99" fill="#56e6cc" opacity="0.78"/><circle cx="113.63" cy="413.47" r="1.09" fill="#6abbe7" opacity="0.59"/><circle cx="404.14" cy="287.18" r="0.65" fill="#56e6cc" opacity="0.64"/><circle cx="261.61" cy="496.17" r="0.70" fill="#56e6cc" opacity="0.66"/><circle cx="316.23" cy="428.79" r="1.19" fill="#6abbe7" opacity="0.23"/><circle cx="125.21" cy="257.22" r="0.89" fill="#56e6cc" opacity="0.72"/><circle cx="268.70" cy="501.19" r="0.80" fill="#56e6cc" opacity="0.35"/><circle cx="360.30" cy="295.66" r="1.68" fill="#6abbe7" opacity="0.25"/><circle cx="306.79" cy="278.77" r="1.37" fill="#56e6cc" opacity="0.63"/><circle cx="307.94" cy="235.39" r="1.65" fill="#56e6cc" opacity="0.63"/><circle cx="387.71" cy="458.31" r="1.55" fill="#6abbe7" opacity="0.61"/><circle cx="276.55" cy="315.37" r="1.40" fill="#56e6cc" opacity="0.20"/><circle cx="180.85" cy="421.37" r="0.99" fill="#56e6cc" opacity="0.43"/><circle cx="191.90" cy="461.64" r="1.56" fill="#6abbe7" opacity="0.52"/><circle cx="112.82" cy="440.39" r="1.12" fill="#56e6cc" opacity="0.72"/><circle cx="378.26" cy="354.52" r="1.44" fill="#56e6cc" opacity="0.78"/><circle cx="262.76" cy="486.62" r="1.12" fill="#6abbe7" opacity="0.79"/><circle cx="160.69" cy="372.93" r="0.99" fill="#56e6cc" opacity="0.69"/><circle cx="156.16" cy="271.27" r="1.68" fill="#56e6cc" opacity="0.63"/><circle cx="396.34" cy="361.22" r="1.56" fill="#6abbe7" opacity="0.68"/><circle cx="408.58" cy="289.57" r="1.35" fill="#56e6cc" opacity="0.28"/><circle cx="74.58" cy="375.83" r="1.48" fill="#56e6cc" opacity="0.52"/><circle cx="250.59" cy="262.88" r="1.68" fill="#6abbe7" opacity="0.46"/><circle cx="92.55" cy="314.58" r="0.84" fill="#56e6cc" opacity="0.28"/><circle cx="408.97" cy="314.52" r="0.68" fill="#56e6cc" opacity="0.26"/><circle cx="344.38" cy="375.96" r="1.48" fill="#6abbe7" opacity="0.33"/><circle cx="279.58" cy="498.38" r="1.15" fill="#56e6cc" opacity="0.60"/><circle cx="302.73" cy="234.37" r="1.40" fill="#56e6cc" opacity="0.42"/><circle cx="289.21" cy="424.18" r="1.55" fill="#6abbe7" opacity="0.23"/><circle cx="424.56" cy="328.51" r="1.12" fill="#56e6cc" opacity="0.32"/><circle cx="437.07" cy="384.08" r="1.66" fill="#56e6cc" opacity="0.35"/><circle cx="286.72" cy="310.95" r="1.51" fill="#6abbe7" opacity="0.62"/><circle cx="297.29" cy="427.85" r="0.80" fill="#56e6cc" opacity="0.37"/><circle cx="420.49" cy="346.08" r="0.96" fill="#56e6cc" opacity="0.56"/><circle cx="107.05" cy="303.90" r="1.37" fill="#6abbe7" opacity="0.58"/><circle cx="244.72" cy="356.43" r="1.12" fill="#56e6cc" opacity="0.73"/><circle cx="211.75" cy="485.69" r="1.08" fill="#56e6cc" opacity="0.63"/><circle cx="362.10" cy="264.81" r="1.29" fill="#6abbe7" opacity="0.44"/><circle cx="83.53" cy="427.92" r="0.62" fill="#56e6cc" opacity="0.41"/><circle cx="336.97" cy="274.17" r="1.20" fill="#56e6cc" opacity="0.23"/><circle cx="153.98" cy="401.23" r="1.00" fill="#6abbe7" opacity="0.26"/><circle cx="364.85" cy="332.04" r="0.65" fill="#56e6cc" opacity="0.37"/><circle cx="248.00" cy="429.32" r="0.83" fill="#56e6cc" opacity="0.79"/><circle cx="160.81" cy="263.97" r="1.01" fill="#6abbe7" opacity="0.24"/><circle cx="266.67" cy="250.23" r="1.06" fill="#56e6cc" opacity="0.77"/><circle cx="278.25" cy="486.67" r="0.90" fill="#56e6cc" opacity="0.59"/><circle cx="197.82" cy="495.91" r="1.59" fill="#6abbe7" opacity="0.47"/><circle cx="82.31" cy="356.78" r="1.39" fill="#56e6cc" opacity="0.75"/><circle cx="65.99" cy="343.12" r="0.65" fill="#56e6cc" opacity="0.78"/><circle cx="389.28" cy="375.33" r="0.83" fill="#6abbe7" opacity="0.78"/><circle cx="102.94" cy="301.26" r="1.38" fill="#56e6cc" opacity="0.27"/><circle cx="326.37" cy="316.93" r="1.25" fill="#56e6cc" opacity="0.46"/><circle cx="222.62" cy="251.92" r="0.71" fill="#6abbe7" opacity="0.45"/><circle cx="144.79" cy="293.44" r="0.71" fill="#56e6cc" opacity="0.76"/><circle cx="94.47" cy="414.85" r="1.00" fill="#56e6cc" opacity="0.32"/><circle cx="170.02" cy="373.19" r="0.61" fill="#6abbe7" opacity="0.42"/><circle cx="353.16" cy="439.53" r="1.57" fill="#56e6cc" opacity="0.50"/><circle cx="346.84" cy="329.74" r="1.15" fill="#56e6cc" opacity="0.58"/><circle cx="405.54" cy="430.80" r="1.41" fill="#6abbe7" opacity="0.65"/><circle cx="218.50" cy="491.35" r="1.47" fill="#56e6cc" opacity="0.71"/><circle cx="365.97" cy="468.64" r="0.85" fill="#56e6cc" opacity="0.71"/><circle cx="410.14" cy="286.69" r="0.76" fill="#6abbe7" opacity="0.47"/><circle cx="144.12" cy="374.75" r="1.45" fill="#56e6cc" opacity="0.66"/><circle cx="428.57" cy="347.07" r="1.05" fill="#56e6cc" opacity="0.57"/><circle cx="330.84" cy="266.77" r="1.50" fill="#6abbe7" opacity="0.47"/><circle cx="118.24" cy="266.56" r="1.01" fill="#56e6cc" opacity="0.66"/><circle cx="151.60" cy="246.59" r="1.04" fill="#56e6cc" opacity="0.55"/><circle cx="417.85" cy="368.28" r="1.04" fill="#6abbe7" opacity="0.34"/><circle cx="178.73" cy="360.04" r="1.39" fill="#56e6cc" opacity="0.29"/><circle cx="318.31" cy="488.72" r="1.31" fill="#56e6cc" opacity="0.59"/><circle cx="173.15" cy="258.72" r="1.38" fill="#6abbe7" opacity="0.23"/><circle cx="316.99" cy="328.09" r="0.63" fill="#56e6cc" opacity="0.56"/><circle cx="254.52" cy="323.88" r="1.39" fill="#56e6cc" opacity="0.71"/><circle cx="188.15" cy="465.45" r="0.93" fill="#6abbe7" opacity="0.22"/><circle cx="205.63" cy="350.61" r="1.31" fill="#56e6cc" opacity="0.66"/><circle cx="251.64" cy="299.24" r="1.25" fill="#56e6cc" opacity="0.31"/><circle cx="404.24" cy="337.33" r="0.78" fill="#6abbe7" opacity="0.66"/><circle cx="161.19" cy="278.11" r="1.13" fill="#56e6cc" opacity="0.21"/><circle cx="210.88" cy="442.45" r="1.50" fill="#56e6cc" opacity="0.22"/><circle cx="365.10" cy="436.63" r="1.60" fill="#6abbe7" opacity="0.64"/><circle cx="304.76" cy="278.85" r="1.17" fill="#56e6cc" opacity="0.29"/><circle cx="379.85" cy="382.94" r="0.69" fill="#56e6cc" opacity="0.38"/><circle cx="395.43" cy="312.67" r="0.92" fill="#6abbe7" opacity="0.54"/><circle cx="90.54" cy="286.07" r="1.67" fill="#56e6cc" opacity="0.31"/><circle cx="215.15" cy="447.48" r="1.64" fill="#56e6cc" opacity="0.53"/><circle cx="81.63" cy="395.00" r="1.00" fill="#6abbe7" opacity="0.27"/><circle cx="341.92" cy="259.00" r="0.97" fill="#56e6cc" opacity="0.63"/><circle cx="327.82" cy="472.40" r="1.62" fill="#56e6cc" opacity="0.55"/><circle cx="164.25" cy="373.32" r="0.68" fill="#6abbe7" opacity="0.55"/><circle cx="298.28" cy="378.39" r="1.48" fill="#56e6cc" opacity="0.68"/><circle cx="109.62" cy="348.09" r="0.64" fill="#56e6cc" opacity="0.38"/><text x="28" y="50" fill="#95b9bf" font-size="13" text-anchor="start" font-weight="400">PROJECT / OPEN SOURCE</text><text x="28" y="117" font-size="46.0" fill="url(#brand)" font-weight="700">SuJi</text><text x="28" y="163.0" fill="#eefdf5" font-size="21" text-anchor="start" font-weight="400">Keep the fact and the source</text><text x="28" y="192.4" fill="#eefdf5" font-size="21" text-anchor="start" font-weight="400">it came from.</text><path d="M126.5 418.0L204.4 341.0L278.5 369.0L360.2 292.0" fill="none" stroke="#56e6cc" stroke-width="1.5" marker-end="url(#arrow)"/><path d="M126.5 418.0L204.4 341.0L278.5 369.0L360.2 292.0" class="flow" fill="none" stroke="#acf6cd" stroke-width="2"/><circle cx="126.5" cy="418.0" r="12" fill="#acf6cd" opacity=".5" filter="url(#glow)"/><circle class="pulse" cx="126.5" cy="418.0" r="3" fill="#acf6cd"/><circle cx="204.4" cy="341.0" r="12" fill="#acf6cd" opacity=".5" filter="url(#glow)"/><circle class="pulse" cx="204.4" cy="341.0" r="3" fill="#acf6cd"/><circle cx="278.5" cy="369.0" r="12" fill="#acf6cd" opacity=".5" filter="url(#glow)"/><circle class="pulse" cx="278.5" cy="369.0" r="3" fill="#acf6cd"/><circle cx="360.2" cy="292.0" r="12" fill="#acf6cd" opacity=".5" filter="url(#glow)"/><circle class="pulse" cx="360.2" cy="292.0" r="3" fill="#acf6cd"/></svg>
